<svg width="275" height="79" viewBox="0 0 275 79" fill="none" xmlns="http://www.w3.org/2000/svg">
<path d="M110.523 78.0405L79.8298 30.4867V78.1093H64.6897V0.481689H78.1782L108.871 47.9667V0.481689H124.012V78.0405H110.523Z" fill="white"/>
<path d="M161.174 78.7287C152.709 78.7287 145.689 75.7007 140.253 70.264C132.407 62.4187 132.614 52.7152 132.614 39.3644C132.614 25.9447 132.407 16.2412 140.253 8.46472C145.689 3.02803 152.64 0 161.174 0C175.626 0 186.981 8.25826 189.733 24.4995H174.387C172.873 18.3058 168.95 13.4885 161.311 13.4885C157.182 13.4885 153.81 15.0025 151.608 17.5488C148.649 20.7833 147.823 24.4995 147.823 39.4332C147.823 54.3669 148.717 58.0831 151.608 61.3176C153.81 63.7951 157.182 65.3779 161.311 65.3779C168.95 65.3779 172.873 60.5606 174.387 54.3669H189.733C186.981 70.4017 175.557 78.7287 161.174 78.7287Z" fill="white"/>
<path d="M197.303 78.0405V0.481689H212.444V78.0405H197.303Z" fill="white"/>
<path d="M254.699 14.039V78.1093H239.558V14.039H219.326V0.481689H275V13.9702H254.699V14.039Z" fill="white"/>
<path d="M77.49 0.481689H0V77.9717H77.49V0.481689Z" fill="white"/>
<path d="M9.08398 29.1791L10.0474 58.0142L41.7729 36.8868L40.8095 8.05176L9.08398 29.1791ZM12.3873 53.6786L11.5615 30.4179L38.4696 12.4562L39.2954 35.7169L12.3873 53.6786Z" fill="#143447"/>
<path d="M68.7499 49.8938L43.0116 38.7451L11.2861 59.8725L37.0244 71.0211L68.7499 49.8938Z" fill="#143447"/>
<path d="M15.3467 33.859L15.622 42.1861L24.7749 36.0612L24.4996 27.7341L15.3467 33.859Z" fill="#EF475F"/>
<path d="M24.7747 36.061L24.9811 40.9471L30.349 37.3686L30.2113 32.4824L24.7747 36.061Z" fill="#EF475F"/>
<path d="M30.0051 27.5276L30.2116 32.4825L35.5795 28.8351L35.4418 23.949L30.0051 27.5276Z" fill="#EF475F"/>
</svg>
