<svg width="160" height="46" viewBox="0 0 160 46" fill="none" xmlns="http://www.w3.org/2000/svg">
<path d="M64.3044 45.5987L46.4465 17.8622V45.6388H37.6377V0.361328H45.4855L63.3434 28.0577V0.361328H72.1522V45.5987H64.3044Z" fill="#143447"/>
<path d="M93.7737 46C88.8487 46 84.7646 44.2339 81.6015 41.0629C77.0369 36.487 77.157 30.8273 77.157 23.0402C77.157 15.213 77.0369 9.55327 81.6015 5.0175C84.7646 1.84647 88.8087 0.0803223 93.7737 0.0803223C102.182 0.0803223 108.789 4.89708 110.39 14.37H101.461C100.58 10.7575 98.2982 7.94769 93.8537 7.94769C91.4513 7.94769 89.4894 8.83076 88.2081 10.3159C86.4864 12.2025 86.0059 14.37 86.0059 23.0803C86.0059 31.7906 86.5264 33.9582 88.2081 35.8447C89.4894 37.2897 91.4513 38.213 93.8537 38.213C98.2982 38.213 100.58 35.4032 101.461 31.7906H110.39C108.789 41.1431 102.142 46 93.7737 46Z" fill="#143447"/>
<path d="M114.795 45.5987V0.361328H123.604V45.5987H114.795Z" fill="#143447"/>
<path d="M148.188 8.26883V45.6388H139.379V8.26883H127.608V0.361328H160V8.22869H148.188V8.26883Z" fill="#143447"/>
<path d="M45.0851 0.361328H0V45.5585H45.0851V0.361328Z" fill="#143447"/>
<path d="M5.28516 17.0995L5.84572 33.918L24.3042 21.5951L23.7436 4.77661L5.28516 17.0995ZM7.20708 31.3892L6.7266 17.822L22.3823 7.34555L22.8627 20.9127L7.20708 31.3892Z" fill="white"/>
<path d="M40.0001 29.1816L25.0251 22.679L6.56665 35.0018L21.5416 41.5044L40.0001 29.1816Z" fill="white"/>
<path d="M8.92896 19.829L9.08912 24.6859L14.4144 21.1135L14.2543 16.2566L8.92896 19.829Z" fill="#EF475F"/>
<path d="M14.4146 21.1134L14.5347 23.9633L17.6578 21.876L17.5777 19.0261L14.4146 21.1134Z" fill="#EF475F"/>
<path d="M17.4575 16.1361L17.5776 19.0261L20.7008 16.8987L20.6207 14.0488L17.4575 16.1361Z" fill="#EF475F"/>
</svg>
